<?xml version="1.0" standalone="no"?>
<!DOCTYPE svg PUBLIC "-//W3C//DTD SVG 20010904//EN"
 "http://www.w3.org/TR/2001/REC-SVG-20010904/DTD/svg10.dtd">
<svg version="1.0" xmlns="http://www.w3.org/2000/svg"
 width="500.000000pt" height="500.000000pt" viewBox="0 0 500.000000 500.000000"
 preserveAspectRatio="xMidYMid meet">

<g transform="translate(0.000000,500.000000) scale(0.100000,-0.100000)"
fill="#000000" stroke="none">
<path d="M2211 4245 l-242 -245 143 0 143 0 95 95 c52 52 100 95 107 95 7 0
56 -46 110 -102 54 -56 142 -145 196 -197 54 -53 318 -313 585 -579 l487 -482
3 136 3 136 -414 417 c-227 229 -539 541 -693 693 l-280 277 -243 -244z"/>
<path d="M1161 3192 c-355 -356 -646 -652 -648 -657 -2 -6 94 -107 212 -225
l215 -215 0 139 0 139 -75 75 c-41 41 -75 79 -75 85 0 6 26 35 58 66 176 170
292 284 747 740 l500 501 -145 0 -145 -1 -644 -647z"/>
<path d="M2289 3714 c-9 -11 -10 -20 -2 -32 25 -41 86 -14 63 27 -13 25 -42
27 -61 5z"/>
<path d="M2566 3715 c-20 -20 -5 -55 23 -55 28 0 47 28 34 48 -14 23 -38 26
-57 7z"/>
<path d="M2015 3500 c-36 -39 1 -88 53 -69 29 11 31 64 3 79 -27 14 -35 13
-56 -10z"/>
<path d="M2285 3500 c-27 -30 -7 -70 35 -70 42 0 62 40 35 70 -10 11 -26 20
-35 20 -9 0 -25 -9 -35 -20z"/>
<path d="M2566 3507 c-12 -9 -17 -23 -14 -42 2 -24 8 -31 31 -33 50 -6 75 38
41 72 -19 19 -35 20 -58 3z"/>
<path d="M2836 3504 c-34 -34 -9 -78 41 -72 23 2 29 9 31 33 6 46 -40 71 -72
39z"/>
<path d="M1740 3290 c-24 -24 -25 -48 -4 -78 28 -41 94 -15 94 38 0 18 -8 34
-22 44 -30 21 -44 20 -68 -4z"/>
<path d="M2012 3290 c-27 -26 -28 -54 -2 -80 25 -25 52 -26 73 -2 24 26 21 68
-5 86 -29 21 -40 20 -66 -4z"/>
<path d="M2293 3298 c-33 -16 -33 -80 1 -97 45 -25 93 12 80 63 -4 18 -44 50
-57 45 -1 0 -12 -5 -24 -11z"/>
<path d="M2562 3294 c-41 -28 -18 -104 31 -104 23 0 57 36 57 60 0 20 -36 60
-55 60 -6 0 -21 -7 -33 -16z"/>
<path d="M2832 3290 c-12 -12 -22 -29 -22 -38 0 -28 29 -62 54 -62 52 0 76 75
34 104 -29 21 -40 20 -66 -4z"/>
<path d="M3104 3287 c-21 -19 -26 -29 -20 -50 12 -51 82 -61 103 -15 13 28 1
63 -26 77 -26 14 -26 15 -57 -12z"/>
<path d="M1726 3068 c-22 -31 -20 -64 4 -88 58 -58 142 20 94 88 -10 15 -25
22 -49 22 -24 0 -39 -7 -49 -22z"/>
<path d="M1994 3065 c-19 -30 -11 -81 16 -95 68 -36 136 44 85 100 -26 29 -80
27 -101 -5z"/>
<path d="M2284 3082 c-53 -35 -24 -122 41 -122 22 0 65 45 65 68 0 43 -69 79
-106 54z"/>
<path d="M2547 3072 c-37 -40 -6 -112 48 -112 29 0 65 36 65 65 0 11 -7 31
-16 43 -19 28 -74 30 -97 4z"/>
<path d="M2820 3070 c-26 -26 -25 -60 0 -88 41 -43 110 -17 110 42 0 60 -68
88 -110 46z"/>
<path d="M3098 3077 c-31 -24 -33 -63 -4 -91 30 -31 55 -33 86 -8 63 51 -17
148 -82 99z"/>
<path d="M3990 2809 l0 -134 73 -73 72 -74 -114 -106 c-63 -59 -135 -129 -160
-157 -25 -27 -268 -270 -538 -540 -271 -270 -493 -494 -493 -498 0 -4 61 -7
136 -7 l136 0 649 651 c357 358 649 656 649 662 0 9 -351 363 -392 396 -17 13
-18 6 -18 -120z"/>
<path d="M1452 2864 c-29 -20 -31 -85 -2 -114 42 -42 114 -15 126 47 12 62
-68 106 -124 67z"/>
<path d="M1725 2855 c-49 -48 -16 -125 53 -125 67 0 98 88 46 129 -35 28 -69
26 -99 -4z"/>
<path d="M1995 2855 c-30 -30 -32 -64 -4 -99 15 -19 30 -26 55 -26 71 0 101
74 51 128 -27 30 -71 29 -102 -3z"/>
<path d="M2274 2862 c-31 -24 -38 -56 -20 -90 17 -33 34 -42 75 -42 39 0 65
33 64 78 -2 63 -70 94 -119 54z"/>
<path d="M2542 2857 c-46 -49 -14 -127 53 -127 24 0 39 7 54 26 28 35 26 69
-4 99 -31 32 -74 33 -103 2z"/>
<path d="M2815 2855 c-32 -31 -33 -74 -2 -103 50 -47 127 -15 127 51 0 69 -77
101 -125 52z"/>
<path d="M3085 2855 c-30 -30 -32 -58 -4 -96 34 -48 105 -37 128 20 31 74 -66
135 -124 76z"/>
<path d="M3366 2859 c-54 -43 -23 -129 47 -129 44 0 71 30 71 77 0 65 -65 94
-118 52z"/>
<path d="M1445 2645 c-53 -52 -18 -145 53 -145 41 1 63 13 80 47 19 35 14 63
-17 94 -38 37 -82 39 -116 4z"/>
<path d="M1735 2658 c-51 -29 -60 -89 -21 -134 49 -58 146 -20 146 57 0 20
-10 40 -29 60 -31 30 -63 36 -96 17z"/>
<path d="M1988 2640 c-26 -27 -30 -36 -25 -68 8 -47 38 -72 87 -72 84 0 113
117 39 155 -42 22 -67 18 -101 -15z"/>
<path d="M2285 2658 c-32 -17 -45 -39 -45 -79 0 -40 18 -65 57 -80 35 -13 89
14 102 53 25 72 -49 142 -114 106z"/>
<path d="M2536 2645 c-54 -50 -20 -145 53 -145 47 0 78 22 86 61 19 85 -75
143 -139 84z"/>
<path d="M2809 2641 c-56 -56 -22 -145 56 -145 87 0 117 127 38 163 -39 18
-63 13 -94 -18z"/>
<path d="M3092 2654 c-33 -23 -45 -60 -31 -101 12 -39 34 -53 82 -53 45 0 77
34 77 84 0 68 -73 109 -128 70z"/>
<path d="M3375 2658 c-32 -17 -45 -39 -45 -79 0 -92 124 -115 159 -30 31 73
-46 146 -114 109z"/>
<path d="M1460 2448 c-14 -8 -34 -29 -44 -49 -18 -34 -18 -36 -1 -73 46 -97
180 -71 180 35 0 68 -76 117 -135 87z"/>
<path d="M1728 2444 c-34 -18 -48 -43 -48 -86 0 -44 22 -74 64 -88 41 -13 75
-2 105 36 37 47 21 112 -34 139 -40 18 -52 18 -87 -1z"/>
<path d="M2005 2446 c-54 -23 -71 -93 -34 -140 30 -38 64 -49 105 -36 42 14
64 44 64 88 0 44 -14 68 -50 87 -35 18 -46 18 -85 1z"/>
<path d="M2274 2441 c-83 -51 -50 -176 47 -176 104 0 131 140 34 181 -43 18
-44 18 -81 -5z"/>
<path d="M2555 2448 c-77 -42 -72 -151 9 -178 43 -14 87 2 109 39 32 54 11
121 -44 140 -39 13 -49 13 -74 -1z"/>
<path d="M2824 2444 c-32 -16 -54 -50 -54 -85 0 -57 62 -108 116 -95 91 23 99
155 12 185 -38 14 -37 14 -74 -5z"/>
<path d="M3094 2444 c-21 -10 -35 -27 -44 -53 -16 -51 1 -89 54 -115 36 -18
40 -18 73 -2 48 23 69 73 49 120 -14 33 -59 66 -88 66 -7 0 -27 -7 -44 -16z"/>
<path d="M3373 2445 c-37 -16 -53 -42 -53 -87 0 -95 125 -130 173 -49 24 42
21 76 -10 110 -34 36 -68 44 -110 26z"/>
<path d="M1734 2236 c-40 -18 -64 -52 -64 -93 0 -43 17 -78 46 -93 l24 -13
-38 -32 c-35 -31 -37 -36 -37 -90 0 -53 3 -59 35 -86 102 -86 240 35 170 149
-11 18 -32 37 -48 43 -19 8 -23 13 -12 16 30 11 60 47 66 81 15 81 -68 150
-142 118z"/>
<path d="M2030 2243 c-64 -21 -97 -68 -86 -125 6 -34 36 -70 66 -81 11 -3 7
-8 -12 -16 -34 -13 -68 -66 -68 -104 0 -34 24 -83 47 -95 14 -8 12 -13 -17
-39 -31 -28 -34 -36 -34 -87 -1 -54 1 -60 36 -92 40 -36 89 -45 142 -24 37 14
66 67 66 119 0 36 -6 49 -33 76 l-34 34 26 26 c22 21 26 35 26 81 0 53 -3 58
-37 89 l-38 32 24 13 c45 24 61 104 30 149 -13 18 -74 54 -86 50 -2 0 -10 -3
-18 -6z"/>
<path d="M2293 2243 c-32 -6 -72 -51 -79 -88 -7 -41 16 -89 54 -109 l27 -14
-26 -10 c-43 -17 -73 -79 -62 -132 3 -15 16 -39 30 -54 l25 -27 -25 -22 c-50
-44 -54 -127 -10 -179 13 -15 12 -21 -14 -54 -50 -66 -34 -153 34 -196 66 -40
166 -13 193 52 l13 31 17 -28 c54 -88 162 -103 222 -32 48 56 48 123 2 178
l-24 29 25 38 c14 20 25 48 25 61 0 35 -25 88 -50 106 l-21 15 25 25 c53 53
37 155 -29 186 -27 13 -28 15 -8 22 11 4 30 20 42 35 59 75 -23 194 -114 164
-49 -16 -75 -53 -75 -105 0 -36 5 -48 33 -72 l32 -28 -37 -36 c-33 -31 -38
-42 -38 -82 0 -37 6 -53 30 -80 l29 -34 -23 -13 c-51 -27 -62 -114 -21 -174
13 -20 20 -36 14 -36 -5 0 -19 -16 -31 -37 -20 -33 -23 -35 -32 -18 -6 10 -21
29 -32 41 -21 22 -21 23 -3 40 10 9 23 32 30 51 14 45 -3 106 -39 134 l-24 19
26 31 c20 23 26 42 26 76 0 41 -5 51 -39 83 l-39 38 23 12 c49 26 65 111 28
152 -15 18 -76 51 -85 47 -2 -1 -13 -4 -25 -6z"/>
<path d="M3098 2234 c-37 -16 -68 -62 -68 -101 0 -28 37 -83 62 -92 22 -8 22
-9 -8 -24 -61 -32 -79 -121 -36 -173 47 -56 118 -60 168 -10 29 29 34 41 34
82 0 42 -4 51 -40 86 -23 21 -37 38 -32 38 5 0 21 12 36 26 21 21 26 36 26 74
0 42 -4 52 -31 74 -17 14 -34 26 -39 26 -5 0 -14 2 -22 5 -7 2 -30 -3 -50 -11z"/>
<path d="M2811 2226 c-31 -17 -50 -53 -51 -94 0 -25 9 -43 33 -67 l33 -33 -33
-26 c-53 -43 -57 -116 -8 -174 20 -24 22 -31 10 -36 -23 -9 -55 -68 -55 -102
0 -61 62 -124 123 -124 73 0 127 55 127 130 0 34 -6 48 -34 76 -28 28 -31 35
-19 46 24 20 43 65 43 104 0 30 -7 44 -37 72 l-38 36 33 32 c51 51 43 127 -18
159 -35 18 -77 19 -109 1z"/>
<path d="M1090 2078 l0 -133 680 -682 c374 -376 683 -683 687 -683 9 0 483
475 483 484 0 3 -62 6 -138 6 l-137 0 -100 -100 c-55 -55 -104 -100 -110 -100
-5 0 -89 80 -185 177 -281 287 -1166 1163 -1173 1163 -4 0 -7 -60 -7 -132z"/>
</g>
</svg>
